<svg id="Capa_1" data-name="Capa 1" xmlns="http://www.w3.org/2000/svg" viewBox="0 0 75.81 75.82"><defs><style>.cls-1{fill:#fff;}.cls-2{fill:#022953;}</style></defs><path class="cls-1" d="M37.91,0a37.91,37.91,0,1,0,37.9,37.9A37.9,37.9,0,0,0,37.91,0ZM49.06,39.82,30.61,58.26a2.7,2.7,0,0,1-3.83,0,2.74,2.74,0,0,1-.8-1.91,2.77,2.77,0,0,1,.8-1.93L43.3,37.9,26.78,21.38a2.71,2.71,0,0,1,3.83-3.83L49,36A2.7,2.7,0,0,1,49.06,39.82Z"/><path class="cls-2" d="M49.06,39.82,30.61,58.26a2.7,2.7,0,0,1-3.83,0,2.74,2.74,0,0,1-.8-1.91,2.77,2.77,0,0,1,.8-1.93L43.3,37.9,26.78,21.38a2.71,2.71,0,0,1,3.83-3.83L49,36A2.7,2.7,0,0,1,49.06,39.82Z"/></svg>