<svg id="Capa_1" data-name="Capa 1" xmlns="http://www.w3.org/2000/svg" viewBox="0 0 76.61 75.82"><defs><style>.cls-1{fill:#022953;}.cls-2{fill:#fff;}</style></defs><path class="cls-1" d="M38.71,0a37.91,37.91,0,1,0,37.9,37.9A37.9,37.9,0,0,0,38.71,0ZM49.86,39.82,31.41,58.26a2.7,2.7,0,0,1-3.83,0,2.8,2.8,0,0,1-.81-1.91,2.82,2.82,0,0,1,.81-1.93L44.1,37.9,27.58,21.38a2.71,2.71,0,0,1,3.83-3.83L49.84,36A2.7,2.7,0,0,1,49.86,39.82Z"/><path class="cls-2" d="M49.86,39.82,31.41,58.26a2.7,2.7,0,0,1-3.83,0,2.8,2.8,0,0,1-.81-1.91,2.82,2.82,0,0,1,.81-1.93L44.1,37.9,27.58,21.38a2.71,2.71,0,0,1,3.83-3.83L49.84,36A2.7,2.7,0,0,1,49.86,39.82Z"/></svg>